{"title":"Cascada - Pyromania Vivacomet MegaMix 2010 - FullHD 1920x1080 HQ","uid":5608398,"size":908834426,"categoryP":"video","categoryS":"movie_clips","magnet":"?xt=urn:btih:6db60319306a4198987ec8ab049e72b90d23cde6&amp;dn=Cascada+-+Pyromania+Vivacomet+MegaMix+2010+-+FullHD+1920x1080+HQ&amp;tr=udp%3A%2F%2Ftracker.openbittorrent.com%3A80&amp;tr=udp%3A%2F%2Fopen.demonii.com%3A1337&amp;tr=udp%3A%2F%2Ftracker.coppersurfer.tk%3A6969&amp;tr=udp%3A%2F%2Fexodus.desync.com%3A6969","seeders":0,"leechers":0,"uploader":"slipper92","files":3,"time":1275703713,"description":"Length: 5 min 27 sec\n\nMusic: Cascada - Pyromania Vivacomet MegaMix\n\nScreenshots from clip: &lt;a href=&quot;\nhttp://imagerz.com/QFdCDwoMV1M&quot; rel=&quot;nofollow&quot; target=&quot;_NEW&quot;&gt;\nhttp://imagerz.com/QFdCDwoMV1M&lt;/a&gt; &lt;a href=&quot;\nhttp://imagerz.com/QFdCDwoMV1M&quot; rel=&quot;nofollow&quot; target=&quot;_NEW&quot;&gt;\nhttp://imagerz.com/QFdCDwoMV1M&lt;/a&gt;\n\nor: &lt;a href=&quot;\nhttp://imagerz.com/QEMTW0tvAwJXAFMZFAVR&quot; rel=&quot;nofollow&quot; target=&quot;_NEW&quot;&gt;\nhttp://imagerz.com/QEMTW0tvAwJXAFMZFAVR&lt;/a&gt;\nhttp://imagerz.com/QEMTW0tvAwJXAFMZFwVR\n\n\nIt's unofficial clip for this mix! Only for fans!\n\n\n\nMOVIE information:\n\nGeneral\nComplete name                    : Cascada - Pyromania Vivacomet MegaMix 2010 - FullHD 1920x1080 HQ unoffical clip.avi\nFormat                           : AVI\nFormat/Info                      : Audio Video Interleave\nFile size                        : 866 MiB\nDuration                         : 5mn 27s\nOverall bit rate                 : 22.2 Mbps\nWriting library                  : VirtualDub build 30009/release\n\nVideo\nFormat                           : MPEG-4 Visual\nFormat profile                   : Streaming Video@L1\nFormat settings, BVOP            : Yes\nFormat settings, QPel            : No\nFormat settings, GMC             : 3 warppoints\nFormat settings, Matrix          : Default\nMuxing mode                      : Packed bitstream\nCodec ID                         : XVID\nCodec ID/Hint                    : XviD\nDuration                         : 5mn 27s\nBit rate                         : 21.9 Mbps\nWidth                            : 1 920 pixels\nHeight                           : 1 080 pixels\nDisplay aspect ratio             : 16/9\nFrame rate                       : 24.000 fps\nResolution                       : 24 bits\nColorimetry                      : 4:2:0\nScan type                        : Progressive\nBits/(Pixel*Frame)               : 0.439\nStream size                      : 853 MiB (99%)\nWriting library                  : XviD 50\n\nAudio\nFormat                           : MPEG Audio\nFormat version                   : Version 1\nFormat profile                   : Layer 3\nCodec ID                         : 55\nCodec ID/Hint                    : MP3\nDuration                         : 5mn 27s\nBit rate mode                    : Constant\nBit rate                         : 320 Kbps\nChannel(s)                       : 2 channels\nSampling rate                    : 44.1 KHz\nResolution                       : 16 bits\nStream size                      : 12.5 MiB (1%)\nAlignment                        : Split accross interleaves\nInterleave, duration             : 42 ms (1.00 video frame)\nInterleave, preload duration     : 500 ms\nWriting library                  : LAME3.98.3\n\n\n/// Thanks to P and A ///\n","torrent":{"xt":"urn:btih:6db60319306a4198987ec8ab049e72b90d23cde6","amp;dn":"Cascada+-+Pyromania+Vivacomet+MegaMix+2010+-+FullHD+1920x1080+HQ","amp;tr":["udp%3A%2F%2Ftracker.openbittorrent.com%3A80","udp%3A%2F%2Fopen.demonii.com%3A1337","udp%3A%2F%2Ftracker.coppersurfer.tk%3A6969","udp%3A%2F%2Fexodus.desync.com%3A6969"],"infoHash":"6db60319306a4198987ec8ab049e72b90d23cde6","infoHashBuffer":{"type":"Buffer","data":[109,182,3,25,48,106,65,152,152,126,200,171,4,158,114,185,13,35,205,230]},"announce":[],"urlList":[]}}